<mxfile host="app.diagrams.net" modified="2023-06-20T08:53:43.187Z" agent="Mozilla/5.0 (Windows NT 10.0; Win64; x64) AppleWebKit/537.36 (KHTML, like Gecko) Chrome/114.0.0.0 Safari/537.36 Edg/114.0.1823.51" version="21.5.0" etag="Pw3U2hDoPOU4jE4NmKYa" type="github">
  <diagram name="Page-1" id="A8u1cGYjJxs3ynTsOh-E">
    <mxGraphModel>
      <root>
        <mxCell id="0" />
        <mxCell id="1" parent="0" />
      </root>
    </mxGraphModel>
  </diagram>
</mxfile>
